# xmcd
#
# Track frame offsets:
#	150
#	23690
#	41940
#	59223
#	75915
#	95190
#	114865
#	139235
#	158193
#	176295
#
# Disc length: 2684 seconds
#
# Revision: 0
# Processed by: cddbd v1.5.2PL0 Copyright (c) Steve Scherf et al.
# Submitted via: EasyCDDAExtractor 16.0.9.1
#
DISCID=800a7a0a
DTITLE=Various Artist - KH10: Dĩ Vãng
DYEAR=1989
DGENRE=Pop
TTITLE0=Trịnh Nam Sơn - Dĩ Vãng (Boston)
TTITLE1=Thái Hiền - Cho Anh (Rumba)
TTITLE2=Tuấn Dũng - Lời Từ Giã (Classic Ballad)
TTITLE3=Ý Nhi - Angel (Cha Cha)
TTITLE4=Kenny Chu - Day Dreamer (Pop Ballad)
TTITLE5=Trịnh Nam Sơn - Quên Đi Tình Yêu Cũ (Rumba)
TTITLE6=Như Mai - Tình Yêu Cho Đà Lạt (Pop Ballad)
TTITLE7=Điệp Linh - My Dreams (Pop Rock)
TTITLE8=Trịnh Nam Sơn - Tóc Thề (Blues)
TTITLE9=Minh Xuân and Minh Phúc - Ngất Ngây Hương Tình Yêu (Soft Rock)
EXTD=
EXTT0=
EXTT1=
EXTT2=
EXTT3=
EXTT4=
EXTT5=
EXTT6=
EXTT7=
EXTT8=
EXTT9=
PLAYORDER=
